<svg width="318" height="72" viewBox="0 0 318 72" fill="none" xmlns="http://www.w3.org/2000/svg">
<path d="M110.953 17.9011L108.72 16.139C108.701 16.1243 108.679 16.1152 108.655 16.1126C108.632 16.1101 108.608 16.1143 108.586 16.1247C108.565 16.1351 108.547 16.1513 108.535 16.1715C108.522 16.1917 108.515 16.215 108.515 16.2387V17.3709H104.631V13.4862H105.765C105.87 13.4862 105.929 13.3637 105.864 13.2814L104.1 11.0486C104.089 11.0334 104.074 11.0212 104.057 11.0128C104.04 11.0044 104.021 11 104.002 11C103.983 11 103.964 11.0044 103.947 11.0128C103.929 11.0212 103.914 11.0334 103.903 11.0486L102.139 13.2814C102.124 13.3001 102.115 13.3225 102.113 13.3462C102.11 13.3698 102.114 13.3937 102.125 13.415C102.135 13.4364 102.151 13.4544 102.171 13.467C102.192 13.4796 102.215 13.4862 102.239 13.4862H103.371V17.3709H99.4861V16.237C99.4861 16.132 99.3636 16.0725 99.2814 16.1372L97.0486 17.9011C97.0334 17.9128 97.0212 17.9278 97.0128 17.9449C97.0044 17.9621 97 17.9809 97 18C97 18.0191 97.0044 18.0379 97.0128 18.0551C97.0212 18.0722 97.0334 18.0872 97.0486 18.0989L99.2796 19.8628C99.3619 19.9275 99.4844 19.8698 99.4844 19.763V18.6308H103.369V22.5156H102.235C102.13 22.5156 102.071 22.6381 102.135 22.7203L103.899 24.9514C103.95 25.0162 104.048 25.0162 104.097 24.9514L105.861 22.7203C105.926 22.6381 105.868 22.5156 105.761 22.5156H104.631V18.6308H108.515V19.7648C108.515 19.8698 108.638 19.9293 108.72 19.8645L110.951 18.1006C110.966 18.0888 110.978 18.0737 110.987 18.0565C110.995 18.0393 111 18.0204 111 18.0013C111 17.9821 110.996 17.9632 110.988 17.9458C110.98 17.9285 110.968 17.9132 110.953 17.9011Z" fill="black"/>
<path d="M117.066 22H119.082C121.458 22 122.754 20.536 122.754 18.028C122.754 15.532 121.458 14.128 119.034 14.128H117.066V22ZM118.074 21.172V14.956H118.962C120.798 14.956 121.71 16.048 121.71 18.028C121.71 20.02 120.798 21.172 118.962 21.172H118.074ZM124.461 22H125.469V18.676H126.885L128.781 22H129.921L127.917 18.568C128.985 18.292 129.681 17.572 129.681 16.348C129.681 14.704 128.529 14.128 126.921 14.128H124.461V22ZM125.469 17.86V14.944H126.777C128.001 14.944 128.673 15.316 128.673 16.348C128.673 17.356 128.001 17.86 126.777 17.86H125.469ZM132.626 17.608C132.902 16.732 133.154 15.868 133.394 14.956H133.442C133.694 15.868 133.946 16.732 134.234 17.608L134.606 18.796H132.254L132.626 17.608ZM130.214 22H131.234L131.99 19.612H134.858L135.602 22H136.67L134.018 14.128H132.866L130.214 22ZM140.764 22.144C141.82 22.144 142.684 21.76 143.2 21.232V17.92H140.608V18.748H142.276V20.8C141.964 21.088 141.424 21.256 140.86 21.256C139.18 21.256 138.256 20.02 138.256 18.04C138.256 16.084 139.264 14.872 140.848 14.872C141.64 14.872 142.144 15.172 142.54 15.58L143.092 14.956C142.636 14.464 141.916 13.984 140.824 13.984C138.736 13.984 137.212 15.532 137.212 18.064C137.212 20.632 138.688 22.144 140.764 22.144ZM149.108 22H150.116V14.98H152.504V14.128H146.732V14.98H149.108V22ZM156.521 22.144C158.501 22.144 159.893 20.56 159.893 18.028C159.893 15.52 158.501 13.984 156.521 13.984C154.541 13.984 153.161 15.508 153.161 18.028C153.161 20.56 154.541 22.144 156.521 22.144ZM156.521 21.256C155.117 21.256 154.205 19.996 154.205 18.028C154.205 16.072 155.117 14.872 156.521 14.872C157.925 14.872 158.849 16.072 158.849 18.028C158.849 19.996 157.925 21.256 156.521 21.256ZM163.988 22H164.996V18.676H166.412L168.308 22H169.448L167.444 18.568C168.512 18.292 169.208 17.572 169.208 16.348C169.208 14.704 168.056 14.128 166.448 14.128H163.988V22ZM164.996 17.86V14.944H166.304C167.528 14.944 168.2 15.316 168.2 16.348C168.2 17.356 167.528 17.86 166.304 17.86H164.996ZM173.736 22.144C175.716 22.144 177.108 20.56 177.108 18.028C177.108 15.52 175.716 13.984 173.736 13.984C171.756 13.984 170.376 15.508 170.376 18.028C170.376 20.56 171.756 22.144 173.736 22.144ZM173.736 21.256C172.332 21.256 171.42 19.996 171.42 18.028C171.42 16.072 172.332 14.872 173.736 14.872C175.14 14.872 176.064 16.072 176.064 18.028C176.064 19.996 175.14 21.256 173.736 21.256ZM180.14 22H181.148V14.98H183.536V14.128H177.764V14.98H180.14V22ZM185.829 17.608C186.105 16.732 186.357 15.868 186.597 14.956H186.645C186.897 15.868 187.149 16.732 187.437 17.608L187.809 18.796H185.457L185.829 17.608ZM183.417 22H184.437L185.193 19.612H188.061L188.805 22H189.873L187.221 14.128H186.069L183.417 22ZM191.964 22H192.972V14.98H195.36V14.128H189.588V14.98H191.964V22ZM196.766 22H201.422V21.148H197.774V18.292H200.75V17.44H197.774V14.98H201.302V14.128H196.766V22ZM96.7855 58.144C98.4415 58.144 99.4735 57.148 99.4735 55.9C99.4735 54.736 98.7655 54.184 97.8535 53.8L96.7255 53.308C96.1135 53.056 95.4295 52.768 95.4295 52.012C95.4295 51.316 96.0055 50.872 96.8815 50.872C97.5655 50.872 98.1775 51.148 98.6575 51.604L99.2095 50.932C98.6575 50.38 97.8415 49.984 96.8815 49.984C95.4535 49.984 94.4095 50.872 94.4095 52.072C94.4095 53.236 95.2615 53.788 95.9935 54.1L97.1335 54.604C97.8655 54.928 98.4415 55.18 98.4415 55.984C98.4415 56.74 97.8295 57.256 96.7975 57.256C95.9695 57.256 95.1655 56.896 94.5895 56.308L94.0255 56.968C94.7095 57.7 95.6575 58.144 96.7855 58.144ZM103.988 58.144C104.996 58.144 105.764 57.736 106.4 57.004L105.848 56.404C105.344 56.956 104.78 57.256 104.024 57.256C102.536 57.256 101.6 56.02 101.6 54.04C101.6 52.084 102.584 50.872 104.06 50.872C104.732 50.872 105.248 51.148 105.668 51.58L106.22 50.956C105.752 50.44 105.008 49.984 104.048 49.984C102.044 49.984 100.556 51.532 100.556 54.064C100.556 56.632 102.02 58.144 103.988 58.144ZM107.867 58H108.875V54.676H110.291L112.187 58H113.327L111.323 54.568C112.391 54.292 113.087 53.572 113.087 52.348C113.087 50.704 111.935 50.128 110.327 50.128H107.867V58ZM108.875 53.86V50.944H110.183C111.407 50.944 112.079 51.316 112.079 52.348C112.079 53.356 111.407 53.86 110.183 53.86H108.875ZM117.615 58.144C119.595 58.144 120.987 56.56 120.987 54.028C120.987 51.52 119.595 49.984 117.615 49.984C115.635 49.984 114.255 51.508 114.255 54.028C114.255 56.56 115.635 58.144 117.615 58.144ZM117.615 57.256C116.211 57.256 115.299 55.996 115.299 54.028C115.299 52.072 116.211 50.872 117.615 50.872C119.019 50.872 119.943 52.072 119.943 54.028C119.943 55.996 119.019 57.256 117.615 57.256ZM122.68 58H127.12V57.148H123.688V50.128H122.68V58ZM128.516 58H132.956V57.148H129.524V50.128H128.516V58ZM135.794 59.92H136.514L139.706 49.48H138.986L135.794 59.92ZM143.351 58H144.359V54.88H145.643C147.371 54.88 148.559 54.112 148.559 52.444C148.559 50.716 147.359 50.128 145.595 50.128H143.351V58ZM144.359 54.064V50.944H145.475C146.855 50.944 147.551 51.316 147.551 52.444C147.551 53.56 146.891 54.064 145.523 54.064H144.359ZM150.16 58H151.168V50.128H150.16V58ZM153.312 58H154.26V53.86C154.26 53.044 154.188 52.192 154.128 51.4H154.176C154.44 51.976 154.728 52.564 155.028 53.092L157.836 58H158.916V50.128H157.968V54.232C157.968 55.048 158.04 55.912 158.1 56.728H158.052C157.776 56.152 157.5 55.564 157.2 55.036L154.392 50.128H153.312V58ZM164.046 58.144C165.054 58.144 165.822 57.736 166.458 57.004L165.906 56.404C165.402 56.956 164.838 57.256 164.082 57.256C162.594 57.256 161.658 56.02 161.658 54.04C161.658 52.084 162.642 50.872 164.118 50.872C164.79 50.872 165.306 51.148 165.726 51.58L166.278 50.956C165.81 50.44 165.066 49.984 164.106 49.984C162.102 49.984 160.614 51.532 160.614 54.064C160.614 56.632 162.078 58.144 164.046 58.144ZM167.926 58H168.934V54.304H172.582V58H173.59V50.128H172.582V53.416H168.934V50.128H167.926V58ZM179.788 58H180.796V50.98H183.184V50.128H177.412V50.98H179.788V58ZM187.201 58.144C189.181 58.144 190.573 56.56 190.573 54.028C190.573 51.52 189.181 49.984 187.201 49.984C185.221 49.984 183.841 51.508 183.841 54.028C183.841 56.56 185.221 58.144 187.201 58.144ZM187.201 57.256C185.797 57.256 184.885 55.996 184.885 54.028C184.885 52.072 185.797 50.872 187.201 50.872C188.605 50.872 189.529 52.072 189.529 54.028C189.529 55.996 188.605 57.256 187.201 57.256ZM194.128 58H199.552V57.148H195.376L199.516 50.728V50.128H194.5V50.98H198.256L194.128 57.4V58ZM203.806 58.144C205.786 58.144 207.178 56.56 207.178 54.028C207.178 51.52 205.786 49.984 203.806 49.984C201.826 49.984 200.446 51.508 200.446 54.028C200.446 56.56 201.826 58.144 203.806 58.144ZM203.806 57.256C202.402 57.256 201.49 55.996 201.49 54.028C201.49 52.072 202.402 50.872 203.806 50.872C205.21 50.872 206.134 52.072 206.134 54.028C206.134 55.996 205.21 57.256 203.806 57.256ZM211.775 58.144C213.755 58.144 215.147 56.56 215.147 54.028C215.147 51.52 213.755 49.984 211.775 49.984C209.795 49.984 208.415 51.508 208.415 54.028C208.415 56.56 209.795 58.144 211.775 58.144ZM211.775 57.256C210.371 57.256 209.459 55.996 209.459 54.028C209.459 52.072 210.371 50.872 211.775 50.872C213.179 50.872 214.103 52.072 214.103 54.028C214.103 55.996 213.179 57.256 211.775 57.256ZM216.828 58H217.752V53.656C217.752 52.96 217.668 51.988 217.608 51.304H217.656L218.28 53.14L219.744 57.208H220.476L221.952 53.14L222.564 51.304H222.612C222.552 51.988 222.468 52.96 222.468 53.656V58H223.416V50.128H222.156L220.668 54.34C220.476 54.892 220.332 55.396 220.152 55.984H220.104C219.936 55.396 219.768 54.892 219.576 54.34L218.088 50.128H216.828V58Z" fill="#282A2C"/>
<path d="M76.4058 44.7281L76.842 45.0636L74.3004 48.3707L73.8643 48.0352L76.4058 44.7281Z" fill="black"/>
<path d="M76.4851 47.2757L76.3921 45.1791L74.3714 45.6301L74.251 45.0933L76.9124 44.4993L77.0345 47.2515L76.4851 47.2757Z" fill="black"/>
<path d="M73.4629 48.5495L73.9057 48.8756L71.434 52.2361L70.9912 51.91L73.4629 48.5495Z" fill="black"/>
<path d="M70.9102 52.4589L70.7441 49.7369L71.293 49.7039L71.419 51.7703L73.4595 51.2791L73.5887 51.8137L70.9102 52.4589Z" fill="black"/>
<path d="M81.4584 63.7158C81.1174 63.7158 80.8545 63.6965 80.6945 63.6806C79.727 63.5838 78.1986 63.0134 77.1288 61.9904C76.2824 61.1808 74.2089 57.3182 73.6121 55.7452C73.5027 55.4575 72.5754 52.9259 73.5665 52.4303C73.8585 52.284 74.2072 52.1355 74.5768 52.1355C74.9574 52.1355 75.3166 52.2851 75.7071 52.6074C76.5497 53.3037 77.0254 54.7123 77.0304 54.7266C77.0584 54.8107 77.1052 54.9328 77.1569 55.0632C77.3956 54.1892 77.747 52.6877 77.7663 51.3815C77.7795 50.4723 77.6838 49.3679 77.5985 48.3928C77.455 46.745 77.4181 46.0965 77.6051 45.827C77.9566 45.3188 78.665 45.0092 79.193 45.1478L79.2986 45.1747C79.7622 45.288 80.3969 45.4431 80.7104 46.8231C80.8584 47.4759 80.871 49.1166 80.843 50.6571C80.9497 50.3524 81.0668 50.1176 81.1917 50.0087C81.5426 49.7018 81.9842 49.6374 82.2939 49.6374C82.5392 49.6374 82.7531 49.6787 82.8554 49.7199C82.8923 49.7348 83.7783 50.1 83.7783 51.0856C83.7783 51.2269 83.7706 51.3754 83.7585 51.525C83.9219 51.3408 84.0979 51.1961 84.2733 51.1494C84.8041 51.0091 85.425 51.0949 85.7259 51.3589C86.0586 51.6499 86.1879 52.2103 86.0553 52.7884C86.1598 52.6993 86.2632 52.6366 86.3611 52.6168C86.4229 52.6048 86.4857 52.5991 86.5487 52.5997C86.9238 52.5997 87.5618 52.795 87.7834 53.334C88.0573 53.9989 88.1629 56.1802 87.388 57.9776C87.1707 58.4814 86.9815 59.0061 86.7978 59.5143C86.343 60.7733 85.9134 61.9624 85.1335 62.651C84.0825 63.5772 82.3802 63.7158 81.4584 63.7158ZM74.5768 52.685C74.3711 52.685 74.1495 52.7532 73.8123 52.922C73.4939 53.081 73.7238 54.4901 74.1264 55.5494C74.7319 57.1449 76.7878 60.902 77.5089 61.5922C78.4411 62.4838 79.8447 63.0426 80.7495 63.1333C80.9365 63.1515 81.1801 63.1658 81.4584 63.1658C82.1377 63.1658 83.8196 63.075 84.7678 62.2379C85.4426 61.6428 85.8491 60.5175 86.2792 59.3268C86.4656 58.8109 86.6576 58.2785 86.882 57.7587C87.6003 56.0933 87.482 54.0484 87.2741 53.5424C87.1493 53.2388 86.6702 53.1173 86.4678 53.1552C86.3606 53.202 86.0339 53.6205 85.7803 54.0462L85.001 55.3591L85.2732 53.857C85.2732 53.857 85.3948 53.1888 85.5163 52.6729C85.6186 52.2362 85.5081 51.9001 85.3629 51.772C85.2067 51.635 84.7623 51.5872 84.4141 51.6807C84.22 51.7324 83.7981 52.3572 83.5396 52.8863L82.5353 54.9444L83.0243 52.707C83.0265 52.6971 83.2278 51.7665 83.2278 51.085C83.2278 50.4679 82.6563 50.232 82.6503 50.2292C82.5837 50.2045 81.9672 50.0598 81.553 50.4212C81.305 50.639 80.9326 52.4193 80.7308 53.9439L80.1835 53.8944C80.1863 53.8372 80.4618 48.2124 80.1736 46.9435C79.9349 45.8958 79.562 45.8039 79.1666 45.7071L79.05 45.678C78.748 45.5966 78.2772 45.8199 78.0561 46.1389C77.9698 46.3303 78.0666 47.4468 78.1452 48.3438C78.231 49.3316 78.3289 50.4509 78.3152 51.3886C78.2844 53.4478 77.4951 55.87 77.461 55.9723L77.2344 56.6626L76.9479 55.9949C76.9341 55.963 76.6135 55.2161 76.5073 54.8993C76.3902 54.5467 75.9551 53.5254 75.3556 53.0309C75.0702 52.7955 74.8221 52.685 74.5768 52.685Z" fill="black"/>
</svg>
